<?xml version="1.0" encoding="UTF-8"?>
<!-- Created with Inkscape (http://www.inkscape.org/) -->
<svg width="79.375mm" height="52.278mm" version="1.1" viewBox="0 0 79.375 52.278" xmlns="http://www.w3.org/2000/svg">
 <g transform="translate(-69.005 -65.938)" fill="#0cf" stroke-width="1.788">
  <path d="m90.691 65.938c-3.1662 0-6.0764 0.5467-8.7305 1.6409-2.6541 1.0943-4.9474 2.7007-6.8798 4.8194-1.909 2.0953-3.3991 4.6799-4.47 7.7528-1.071 3.0733-1.6062 6.5884-1.6062 10.546v2.829c0 3.9578 0.5237 7.4729 1.5712 10.546 1.0709 3.0498 2.5843 5.6228 4.54 7.7182 1.9555 2.0951 4.3071 3.69 7.0545 4.7842 2.747 1.0942 5.8202 1.641 9.2192 1.641 2.7472 0 5.2149-0.2325 7.4034-0.6981 2.2117-0.4422 4.1557-1.0129 5.8319-1.7113 1.5861-0.6609 2.9398-1.3745 4.0673-2.1395 1.1273 0.7648 2.4809 1.4789 4.0668 2.1395 1.6762 0.6984 3.6202 1.2691 5.8319 1.7113 2.1884 0.4656 4.6562 0.6981 7.4033 0.6981 3.3991 0 6.4723-0.5468 9.2195-1.641s5.0988-2.6891 7.0543-4.7842c1.9558-2.0954 3.4691-4.6684 4.54-7.7182 1.0475-3.0732 1.5717-6.5883 1.5717-10.546v-2.829c0-3.9578-0.5357-7.4729-1.6067-10.546-1.0709-3.0729-2.561-5.6575-4.47-7.7528-1.9324-2.1187-4.2257-3.7251-6.8798-4.8194-2.6542-1.0942-5.5643-1.6409-8.7306-1.6409-3.5153 0-6.5303 0.4304-9.0445 1.2916-2.5145 0.8383-4.6096 2.0261-6.2859 3.5625-1.0435 0.9565-1.9332 2.0257-2.67 3.2079-0.7369-1.1822-1.6266-2.2511-2.6701-3.2079-1.6764-1.5364-3.7718-2.7242-6.2863-3.5625-2.5142-0.8612-5.5292-1.2916-9.0446-1.2916zm0.4192 9.4289c1.42 0 2.6306 0.1746 3.6317 0.524 1.0244 0.3493 1.8739 0.861 2.549 1.5361 0.6984 0.6753 1.2341 1.502 1.6067 2.4797 0.3956 0.9779 0.6869 2.0954 0.873 3.3525h17.842c0.1861-1.2571 0.4774-2.3746 0.873-3.3525 0.3725-0.9777 0.9083-1.8044 1.6066-2.4797 0.6752-0.6751 1.5246-1.1868 2.5491-1.5361 1.0011-0.3494 2.2117-0.524 3.6317-0.524 1.4668 0 2.8055 0.314 4.0161 0.9426 1.1873 0.6285 2.2004 1.5834 3.0384 2.8638 0.8383 1.2571 1.4898 2.8402 1.9555 4.7494 0.4424 1.909 0.6636 4.1437 0.6636 6.7048v2.8988c0 5.0753-0.8613 8.8932-2.584 11.454-1.7461 2.5375-4.4815 3.8064-8.2066 3.8064-0.9779 0-1.8511-0.058-2.6193-0.1747-0.7684-0.1396-1.4433-0.3142-2.0253-0.5239-0.5821-0.2095-1.071-0.4419-1.4669-0.6979-0.4191-0.2562-0.7568-0.5007-1.0128-0.7334v-7.8923h8.5208v-8.4167h-35.722v8.4167h8.5208v7.8923c-0.2562 0.2327-0.5937 0.4772-1.0129 0.7334-0.3956 0.256-0.8848 0.4884-1.4668 0.6979-0.582 0.2097-1.2569 0.3843-2.0251 0.5239-0.7684 0.1164-1.6416 0.1747-2.6195 0.1747-3.7251 0-6.4605-1.2689-8.2066-3.8064-1.7228-2.561-2.584-6.3789-2.584-11.454v-2.8988c0-2.5611 0.2214-4.7958 0.6636-6.7048 0.4656-1.9092 1.1172-3.4923 1.9554-4.7494 0.838-1.2804 1.8512-2.2353 3.0385-2.8638 1.2106-0.6286 2.5493-0.9426 4.0161-0.9426z"/>
  <path d="m90.691 65.938c-3.1662 0-6.0764 0.5467-8.7305 1.6409-2.6541 1.0943-4.9474 2.7007-6.8798 4.8194-1.909 2.0953-3.3991 4.6799-4.47 7.7528-1.071 3.0733-1.6062 6.5884-1.6062 10.546v2.829c0 3.9578 0.5237 7.4729 1.5712 10.546 1.0709 3.0498 2.5843 5.6228 4.54 7.7182 1.9555 2.0951 4.3071 3.69 7.0545 4.7842 2.747 1.0942 5.8202 1.641 9.2192 1.641 2.7472 0 5.2149-0.2325 7.4034-0.6981 2.2117-0.4422 4.1557-1.0129 5.8319-1.7113 1.5861-0.6609 2.9398-1.3745 4.0673-2.1395 1.1273 0.7648 2.4809 1.4789 4.0668 2.1395 1.6762 0.6984 3.6202 1.2691 5.8319 1.7113 2.1884 0.4656 4.6562 0.6981 7.4033 0.6981 3.3991 0 6.4723-0.5468 9.2195-1.641s5.0988-2.6891 7.0543-4.7842c1.9558-2.0954 3.4691-4.6684 4.54-7.7182 1.0475-3.0732 1.5717-6.5883 1.5717-10.546v-2.829c0-3.9578-0.5357-7.4729-1.6067-10.546-1.0709-3.0729-2.561-5.6575-4.47-7.7528-1.9324-2.1187-4.2257-3.7251-6.8798-4.8194-2.6542-1.0942-5.5643-1.6409-8.7306-1.6409-3.5153 0-6.5303 0.4304-9.0445 1.2916-2.5145 0.8383-4.6096 2.0261-6.2859 3.5625-1.0435 0.9565-1.9332 2.0257-2.67 3.2079-0.7369-1.1822-1.6266-2.2511-2.6701-3.2079-1.6764-1.5364-3.7718-2.7242-6.2863-3.5625-2.5142-0.8612-5.5292-1.2916-9.0446-1.2916zm0.4192 9.4289c1.42 0 2.6306 0.1746 3.6317 0.524 1.0244 0.3493 1.8739 0.861 2.549 1.5361 0.6984 0.6753 1.2341 1.502 1.6067 2.4797 0.3956 0.9779 0.6869 2.0954 0.873 3.3525h17.842c0.1861-1.2571 0.4774-2.3746 0.873-3.3525 0.3725-0.9777 0.9083-1.8044 1.6066-2.4797 0.6752-0.6751 1.5246-1.1868 2.5491-1.5361 1.0011-0.3494 2.2117-0.524 3.6317-0.524 1.4668 0 2.8055 0.314 4.0161 0.9426 1.1873 0.6285 2.2004 1.5834 3.0384 2.8638 0.8383 1.2571 1.4898 2.8402 1.9555 4.7494 0.4424 1.909 0.6636 4.1437 0.6636 6.7048v2.8988c0 5.0753-0.8613 8.8932-2.584 11.454-1.7461 2.5375-4.4815 3.8064-8.2066 3.8064-0.9779 0-1.8511-0.058-2.6193-0.1747-0.7684-0.1396-1.4433-0.3142-2.0253-0.5239-0.5821-0.2095-1.071-0.4419-1.4669-0.6979-0.4191-0.2562-0.7568-0.5007-1.0128-0.7334v-7.8923h8.5208v-8.4167h-35.722v8.4167h8.5208v7.8923c-0.2562 0.2327-0.5937 0.4772-1.0129 0.7334-0.3956 0.256-0.8848 0.4884-1.4668 0.6979-0.582 0.2097-1.2569 0.3843-2.0251 0.5239-0.7684 0.1164-1.6416 0.1747-2.6195 0.1747-3.7251 0-6.4605-1.2689-8.2066-3.8064-1.7228-2.561-2.584-6.3789-2.584-11.454v-2.8988c0-2.5611 0.2214-4.7958 0.6636-6.7048 0.4656-1.9092 1.1172-3.4923 1.9554-4.7494 0.838-1.2804 1.8512-2.2353 3.0385-2.8638 1.2106-0.6286 2.5493-0.9426 4.0161-0.9426z"/>
 </g>
</svg>
