<?xml version="1.0" encoding="UTF-8"?>
<!-- Created with Inkscape (http://www.inkscape.org/) -->
<svg width="211.67mm" height="16.1mm" version="1.1" viewBox="0 0 211.67 16.1" xmlns="http://www.w3.org/2000/svg">
 <g transform="translate(-25.705 -173.33)">
  <g stroke-width=".54317">
   <path d="m74.574 173.34c-4.0702 0-6.4459 1.9403-7.1266 5.8222l-0.76059 4.3454c-0.11588 0.63733-0.17379 1.2245-0.17379 1.7604 0 1.1588 0.26829 2.0714 0.80422 2.7377 0.78216 0.95597 2.2013 1.4339 4.2581 1.4339 3.9977 0 6.3009-1.6874 6.9092-5.0623l0.10904-0.63044 0.34756-1.8687h-5.7582l-0.43409 2.4119h1.7815c-0.33314 1.1877-1.0933 1.7815-2.281 1.7815-1.1732 0-1.7604-0.49918-1.7604-1.4986 0-0.37661 0.0367-0.76071 0.10904-1.1518l0.73878-4.1716c0.2897-1.6947 1.1656-2.5421 2.6286-2.5421 1.0863 0 1.6295 0.65165 1.6295 1.9552 0 0.68079-0.18838 1.2818-0.56498 1.8033h3.8458l0.21742-0.39119c0.1303-0.26072 0.26084-0.65142 0.39121-1.1729 0.14485-0.52145 0.21665-1.036 0.21665-1.543 0-1.2457-0.43393-2.2228-1.303-2.9325-0.86908-0.72422-2.1438-1.0863-3.824-1.0863zm8.4078 0.15197-2.7587 15.643h10.906l0.60861-3.3892h-6.9958l0.43408-2.5421h5.7793l0.60861-3.3892h-5.7793l0.49954-2.9333h6.9958l0.60861-3.3892zm12.102 0-0.60786 3.3892h5.3662l-2.1509 12.254h3.9323l2.1509-12.254h5.3452l0.60861-3.3892z" fill="#fff"/>
   <path d="m117.44 173.34c-4.6785 0-7.0183 1.8171-7.0183 5.4528 0 0.8546 0.2463 1.5722 0.73877 2.1516 0.49247 0.56489 1.087 0.98492 1.7822 1.2601 0.70974 0.26072 1.412 0.49234 2.1072 0.69513 0.70975 0.20278 1.3108 0.45641 1.8033 0.76059 0.49247 0.30416 0.73877 0.69486 0.73877 1.1728 0 0.89805-0.72422 1.3474-2.1727 1.3474-1.434 0-2.1509-0.49993-2.1509-1.4994 0-0.11589 0.0147-0.24636 0.0437-0.3912l0.0428-0.2603h-3.9105l-0.0654 0.34757c-0.0869 0.478-0.13015 0.91925-0.13015 1.3248 0 1.0719 0.31153 1.9119 0.93437 2.5202 0.8401 0.81114 2.4044 1.2172 4.6929 1.2172 2.2886 0 3.9833-0.44203 5.0841-1.3256 1.1008-0.89804 1.6513-2.2666 1.6513-4.1061 0-0.91252-0.24629-1.6514-0.73876-2.2163-0.49247-0.57937-1.0936-0.99207-1.8033-1.2383-0.70975-0.24625-1.4193-0.4493-2.129-0.60862-0.69526-0.17382-1.2897-0.40544-1.7822-0.69514-0.49248-0.28969-0.73879-0.68114-0.73879-1.1736 0-0.98496 0.77556-1.4768 2.3254-1.4768 1.2312 0 1.8462 0.47059 1.8462 1.4121 0 0.50696-0.15905 0.92697-0.47771 1.2601h3.8458l0.17378-0.26104c0.11588-0.15934 0.22436-0.42687 0.32575-0.80348 0.11589-0.39107 0.17378-0.79719 0.17378-1.2172 0-1.1443-0.44201-2.0349-1.3256-2.6722-0.86906-0.65181-2.1577-0.97726-3.8669-0.97726zm7.2132 0.15197-0.60862 3.3892h5.367l-2.1509 12.254h3.9323l2.1509-12.254h5.3444l0.60863-3.3892zm16.273 0-1.7597 10.016c-0.11588 0.62284-0.17378 1.1953-0.17378 1.7168 0 1.1733 0.28954 2.0932 0.86892 2.7595 0.81114 0.97048 2.2669 1.4557 4.3672 1.4557 2.1003 0 3.7224-0.47793 4.8667-1.4339 1.1588-0.97048 1.9189-2.4703 2.281-4.4981l1.7604-10.016h-3.9113l-1.7596 9.929c-0.17381 1.0139-0.47802 1.7088-0.91255 2.0854-0.43453 0.37659-1.0136 0.56498-1.7378 0.56498-1.2167 0-1.8251-0.50652-1.8251-1.5204 0-0.39109 0.0285-0.76786 0.0865-1.13l1.7596-9.929zm15.165 0-2.7587 15.643h3.9323l0.99907-5.7356h5.7792l0.58681-3.3892h-5.7792l0.54316-3.1289h6.9965l0.60786-3.3892zm13.08 0-2.7595 15.643h3.9331l0.99906-5.7356h5.7793l0.5868-3.3892h-5.7793l0.54316-3.1289h6.9958l0.60864-3.3892z" fill="#0cf"/>
   <path d="m202.59 173.34c-4.0702 0-6.4451 1.9403-7.1259 5.8222l-0.76058 4.3454c-0.11589 0.62284-0.17379 1.1953-0.17379 1.7168 0 1.1733 0.2822 2.0932 0.8471 2.7595 0.82562 0.97048 2.2887 1.4557 4.389 1.4557 2.1003 0 3.7298-0.48525 4.8885-1.4557 1.1588-0.97046 1.9123-2.4629 2.2599-4.4763l0.75984-4.3454c0.10132-0.55042 0.15272-1.0642 0.15272-1.5422 0-2.8534-1.7461-4.2799-5.2368-4.2799zm-20.227 0.15197-2.7595 15.643h6.3232c1.7961 0 3.2584-0.49184 4.3882-1.4768 1.1298-0.98494 1.8401-2.2963 2.1298-3.9331l0.84709-4.8449c0.0724-0.43455 0.10831-0.84723 0.10831-1.2383 0-1.0864-0.29688-1.9916-0.89074-2.7158-0.81113-0.95598-2.165-1.4339-4.0625-1.4339zm28.962 0-2.7595 15.643h3.9331l1.4775-8.5598 2.7376 8.5598h3.9323l2.7377-15.643h-3.9113l-1.4121 7.9956-2.694-7.9956zm15.144 0-2.7595 15.643h10.907l0.60786-3.3892h-6.9958l0.43484-2.5421h5.7793l0.60787-3.3892h-5.7793l0.49954-2.9333h6.9965l0.60787-3.3892zm-24.443 3.2154c1.1877 0 1.7815 0.5864 1.7815 1.7596 0 0.23177-0.022 0.49272-0.0655 0.78241l-0.73877 4.1716c-0.17381 1.0139-0.47801 1.7088-0.91254 2.0854-0.43455 0.37659-1.0136 0.56498-1.7378 0.56498-1.2167 0-1.8251-0.50652-1.8251-1.5204 0-0.39109 0.0285-0.76786 0.0865-1.13l0.73876-4.1716c0.28969-1.6657 1.1811-2.513 2.673-2.5421zm-16.361 0.17378h1.4121c1.4774 0 2.2163 0.68832 2.2163 2.0643 0 0.26073-0.0293 0.55027-0.0874 0.86893l-0.62968 3.5629c-0.14485 0.84012-0.41315 1.4485-0.80422 1.8251-0.37661 0.36212-0.90509 0.54318-1.5859 0.54318h-2.0643z" fill="#fff"/>
  </g>
  <g fill="#0cf" stroke-linejoin="round">
   <rect x="25.705" y="185.43" width="11.051" height="4.0035" stop-color="#000000" stroke-width="89.988"/>
   <rect x="38.127" y="181.43" width="11.051" height="8.007" stop-color="#000000" stroke-width="127.26"/>
   <rect x="50.548" y="173.33" width="11.051" height="16.1" stop-color="#000000" stroke-width="180.46"/>
  </g>
 </g>
</svg>
